<svg width="48" height="48" viewBox="0 0 48 48" fill="none" xmlns="http://www.w3.org/2000/svg">
<path fill-rule="evenodd" clip-rule="evenodd" d="M0 48H48V0H0V48Z" fill="#AE0000"/>
<path fill-rule="evenodd" clip-rule="evenodd" d="M29.033 13.7517L29.032 22.174H28.0508H19.9184H18.9422L18.9413 13.759L19.9159 12.7855H28.0689L29.033 13.7517ZM36.6531 32.4594V23.6332C36.6531 23.6334 37.095 23.1917 37.095 23.1917V19.3104L34.7782 16.9759H32.4439V17.6668H34.5035L35.831 19.0156L35.1834 19.6609L35.1822 23.1893L35.6148 23.6184V32.022H33.6725V22.8386L33.0212 22.1809H30.6549V13.0835L28.746 11.175H19.2356L17.3265 13.0835V35.0099H15.72V36.6231H32.257V35.0099H30.6549V23.2351H32.6048V32.4209L33.2564 33.0784H36.0391L36.6531 32.4594Z" fill="#F5F5F1"/>
<path fill-rule="evenodd" clip-rule="evenodd" d="M36.6009 17.2564V17.6605H36.5028V17.0206H36.5955L36.7989 17.4625L37.0023 17.0206H37.095V17.6605H36.9969V17.2573L36.8439 17.5921H36.7548L36.6009 17.2564ZM36.2042 17.1169V17.6605H36.1061V17.1169H35.873V17.0206H36.4449V17.1169H36.2042Z" fill="#F5F5F1"/>
</svg>
